<?xml version="1.0" standalone="no"?>
<!DOCTYPE svg PUBLIC "-//W3C//DTD SVG 20010904//EN"
 "http://www.w3.org/TR/2001/REC-SVG-20010904/DTD/svg10.dtd">
<svg version="1.0" xmlns="http://www.w3.org/2000/svg"
 width="500.000000pt" height="500.000000pt" viewBox="0 0 500.000000 500.000000"
 preserveAspectRatio="xMidYMid meet">

<g transform="translate(0.000000,500.000000) scale(0.100000,-0.100000)"
fill="#000000" stroke="none">
<path d="M1494 3275 c-4 -11 1 -642 5 -652 1 -1 10 -7 21 -13 14 -8 35 -7 77
4 32 8 91 17 131 21 39 4 72 11 72 16 0 5 -33 9 -74 9 l-75 0 9 29 c9 33 -3
202 -18 246 -6 17 -13 47 -16 68 -4 34 -2 39 20 47 14 6 58 10 99 10 41 0 77
5 80 10 7 12 14 11 -115 19 l-104 6 -18 75 c-24 103 -24 100 25 100 23 0 49 5
57 10 10 7 -14 10 -78 10 -72 0 -94 -3 -98 -15z"/>
<path d="M3236 3279 c-90 -9 -111 -19 -43 -19 40 0 47 -3 51 -22 11 -51 27
-264 33 -435 l6 -183 -26 0 c-14 0 -28 -4 -31 -9 -8 -12 107 -22 170 -15 60 7
74 24 20 24 -33 0 -34 1 -26 29 20 71 21 256 2 416 -11 88 -23 167 -27 177 -5
12 1 18 24 23 17 4 31 11 31 16 0 11 -72 10 -184 -2z"/>
<path d="M2040 3221 c-8 -5 -36 -12 -61 -15 l-47 -7 -7 -207 c-14 -356 -13
-362 14 -399 14 -18 29 -29 35 -25 6 4 45 9 86 12 131 10 222 72 247 169 27
102 -55 281 -129 281 -27 0 -30 3 -24 23 18 59 17 83 -6 127 -20 39 -28 45
-58 47 -19 2 -42 -1 -50 -6z m80 -41 c14 -27 12 -75 -5 -118 -16 -38 -52 -82
-67 -82 -4 0 -8 49 -8 110 0 93 3 110 17 119 21 11 48 -1 63 -29z m-1 -236
c31 -22 61 -90 61 -139 0 -42 -24 -90 -69 -138 -26 -29 -79 -62 -87 -54 -2 2
1 28 6 58 6 30 13 101 15 159 3 85 7 107 21 117 23 16 25 16 53 -3z"/>
<path d="M858 3192 c-16 -9 -28 -22 -28 -28 0 -25 82 -363 110 -455 33 -105
47 -123 108 -135 38 -8 34 -17 63 153 12 73 25 130 30 128 4 -3 17 -35 29 -73
12 -37 33 -90 46 -119 21 -44 30 -53 59 -59 42 -8 75 3 76 24 1 22 3 35 28
177 24 137 29 289 9 283 -17 -6 -24 -41 -39 -183 -7 -66 -15 -131 -19 -145 -6
-24 -7 -24 -17 -5 -6 11 -18 53 -28 93 -21 90 -46 121 -103 132 -51 9 -52 7
-77 -105 -10 -44 -21 -91 -25 -105 l-8 -25 -5 25 c-40 174 -83 332 -99 365
-39 78 -60 89 -110 57z"/>
<path d="M3660 3186 c-52 -19 -95 -82 -114 -165 -21 -93 -20 -135 5 -217 25
-83 84 -146 150 -164 56 -15 93 -5 139 38 55 53 74 126 67 257 -7 120 -26 180
-72 225 -29 28 -43 34 -87 36 -29 2 -69 -2 -88 -10z m184 -122 c34 -72 42
-130 26 -203 -24 -113 -68 -155 -133 -128 -118 50 -105 362 17 396 43 11 59 0
90 -65z"/>
<path d="M2702 3143 c5 -20 2 -23 -20 -23 l-27 -1 23 -18 c29 -25 28 -28 -8
-36 -34 -7 -41 -25 -10 -25 24 0 25 -4 4 -36 -25 -37 -10 -40 20 -4 27 33 46
32 46 0 0 -10 4 -21 9 -24 5 -4 7 12 4 35 l-6 42 31 -19 c17 -10 35 -14 39
-10 4 4 0 12 -10 17 -22 13 -22 26 1 32 9 3 2 5 -16 6 l-34 1 23 38 22 37 -31
-29 c-30 -27 -32 -28 -32 -9 0 11 -8 27 -17 34 -15 13 -16 12 -11 -8z"/>
</g>
</svg>
