<!--?xml version="1.0" standalone="no"?-->
              <svg id="sw-js-blob-svg" viewBox="0 0 100 100" xmlns="http://www.w3.org/2000/svg" version="1.1">
                    <defs> 
                        <linearGradient id="sw-gradient" x1="0" x2="1" y1="1" y2="0">
                            <stop id="stop1" stop-color="rgba(116, 131, 190, 0.58)" offset="0%"></stop>
                            <stop id="stop2" stop-color="rgba(116, 131, 190, 1)" offset="100%"></stop>
                        </linearGradient>
                    </defs>
                <path fill="url(#sw-gradient)" d="M9.4,-5.9C15.8,-5.8,27.2,-6.3,32.9,-1.7C38.7,3,38.8,12.7,33.5,16.9C28.2,21.1,17.4,19.8,10.6,17C3.7,14.3,0.7,10.3,-7,11C-14.8,11.8,-27.3,17.4,-33.2,15.3C-39.1,13.1,-38.3,3.2,-32.3,-1.2C-26.2,-5.7,-14.7,-4.8,-8.4,-4.9C-2.2,-5.1,-1.1,-6.2,0.2,-6.5C1.5,-6.7,3,-6,9.4,-5.9Z" width="100%" height="100%" transform="translate(50 50)" stroke-width="0" style="transition: all 0.3s ease 0s;" stroke="url(#sw-gradient)"></path>
              </svg>