<svg xmlns="http://www.w3.org/2000/svg" version="1.1" xmlns:xlink="http://www.w3.org/1999/xlink" xmlns:svgjs="http://svgjs.com/svgjs" width="1440" height="221" preserveAspectRatio="none" viewBox="0 0 1440 221"><g mask="url(&quot;#SvgjsMask1367&quot;)" fill="none"><rect width="1440" height="221" x="0" y="0" fill="url(#SvgjsLinearGradient1368)"></rect><path d="M 0,221 C 14.4,185.2 43.2,51 72,42 C 100.8,33 115.2,165 144,176 C 172.8,187 187.2,95.6 216,97 C 244.8,98.4 259.2,181.6 288,183 C 316.8,184.4 331.2,117.2 360,104 C 388.8,90.8 403.2,125.8 432,117 C 460.8,108.2 475.2,51.8 504,60 C 532.8,68.2 547.2,154.6 576,158 C 604.8,161.4 619.2,67 648,77 C 676.8,87 691.2,215.8 720,208 C 748.8,200.2 763.2,55.2 792,38 C 820.8,20.8 835.2,124 864,122 C 892.8,120 907.2,26.4 936,28 C 964.8,29.6 979.2,117.8 1008,130 C 1036.8,142.2 1051.2,73.2 1080,89 C 1108.8,104.8 1123.2,218.6 1152,209 C 1180.8,199.4 1195.2,54.2 1224,41 C 1252.8,27.8 1267.2,136 1296,143 C 1324.8,150 1339.2,61.4 1368,76 C 1396.8,90.6 1425.6,188 1440,216L1440 221L0 221z" fill="rgba(255, 255, 255, 1)"></path></g><defs><mask id="SvgjsMask1367"><rect width="1440" height="221" fill="#ffffff"></rect></mask><linearGradient x1="50%" y1="100%" x2="50%" y2="0%" gradientUnits="userSpaceOnUse" id="SvgjsLinearGradient1368"><stop stop-color="#0e2a47" offset="0"></stop><stop stop-color="rgba(116, 131, 190, 1)" offset="1"></stop></linearGradient></defs></svg>